<?xml version="1.0" encoding="UTF-8"?>
<svg id="Warstwa_1" data-name="Warstwa 1" xmlns="http://www.w3.org/2000/svg" viewBox="0 0 2313.35 2484.69">
  <defs>
    <style>
      .cls-1 {
        fill: #e52521;
        stroke: #e52521;
        stroke-miterlimit: 10;
        stroke-width: 50px;
      }

      .cls-2 {
        fill: none;
        stroke: #30358c;
        stroke-linecap: round;
        stroke-linejoin: round;
        stroke-width: 250px;
      }
    </style>
  </defs>
  <line class="cls-2" x1="1319.67" y1="2359.69" x2="337.44" y2="316.97"/>
  <line class="cls-2" x1="1922.8" y1="1250.32" x2="1319.67" y2="2359.69"/>
  <g id="SVGRepo_iconCarrier" data-name="SVGRepo iconCarrier">
    <path class="cls-1" d="m372.98,44.42c-43.66,21.15-77.89,57.78-96.06,102.76-36.43-10.87-75.24-10.9-111.7-.09-36.45,10.81-68.97,31.99-93.6,60.97-24.62,28.97-40.28,64.49-45.06,102.21-4.79,37.72,1.5,76.02,18.11,110.22,101.79,211.69,466.12,213.08,466.12,213.08,0,0,226.41-285.45,124.63-497.13-22.6-47-62.95-83.1-112.16-100.36-49.22-17.25-103.27-14.25-150.27,8.35Z"/>
  </g>
  <g id="SVGRepo_iconCarrier-2" data-name="SVGRepo iconCarrier">
    <path class="cls-1" d="m2185.63,1006.05c-42.69-23.04-92.42-29.4-139.53-17.83-12.49-35.91-35.16-67.41-65.25-90.66-30.09-23.25-66.29-37.24-104.19-40.27-37.9-3.03-75.86,5.04-109.26,23.21-33.4,18.18-60.78,45.68-78.82,79.15-112.19,206.36,99.74,502.72,99.74,502.72,0,0,363.96,16.73,476.15-189.62,24.91-45.82,30.6-99.66,15.82-149.67-14.78-50.01-48.83-92.11-94.65-117.02Z"/>
  </g>
</svg>