<?xml version="1.0" encoding="UTF-8"?>
<svg id="Warstwa_1" data-name="Warstwa 1" xmlns="http://www.w3.org/2000/svg" viewBox="0 0 182.06 198.14">
  <defs>
    <style>
      .cls-1 {
        fill: #e52521;
        stroke: #e52521;
        stroke-miterlimit: 10;
        stroke-width: 5.25px;
      }

      .cls-2 {
        fill: none;
        stroke: #30358c;
        stroke-linecap: round;
        stroke-linejoin: round;
        stroke-width: 26.25px;
      }
    </style>
  </defs>
  <line class="cls-2" x1="103.76" y1="185.01" x2="27.03" y2="25.43"/>
  <line class="cls-2" x1="150.88" y1="98.35" x2="103.76" y2="185.01"/>
  <g id="SVGRepo_iconCarrier" data-name="SVGRepo iconCarrier">
    <path class="cls-1" d="m29.81,4.14c-3.41,1.65-6.08,4.51-7.5,8.03-2.85-.85-5.88-.85-8.73,0-2.85.84-5.39,2.5-7.31,4.76-1.92,2.26-3.15,5.04-3.52,7.98-.37,2.95.12,5.94,1.41,8.61,7.95,16.54,36.41,16.65,36.41,16.65,0,0,17.69-22.3,9.74-38.84-1.77-3.67-4.92-6.49-8.76-7.84-3.84-1.35-8.07-1.11-11.74.65Z"/>
  </g>
  <g id="SVGRepo_iconCarrier-2" data-name="SVGRepo iconCarrier">
    <path class="cls-1" d="m171.41,79.26c-3.33-1.8-7.22-2.3-10.9-1.39-.98-2.81-2.75-5.27-5.1-7.08-2.35-1.82-5.18-2.91-8.14-3.15-2.96-.24-5.93.39-8.54,1.81-2.61,1.42-4.75,3.57-6.16,6.18-8.76,16.12,7.79,39.27,7.79,39.27,0,0,28.43,1.31,37.2-14.81,1.95-3.58,2.39-7.79,1.24-11.69-1.15-3.91-3.81-7.2-7.39-9.14Z"/>
  </g>
</svg>