<?xml version="1.0" encoding="UTF-8"?>
<svg xmlns="http://www.w3.org/2000/svg" viewBox="0 0 1600.53 1773.15">
  <defs>
    <style>
      .cls-1 {
        fill: none;
        stroke: #2e3192;
        stroke-linecap: round;
        stroke-linejoin: round;
        stroke-width: 200px;
      }

      .cls-2 {
        fill: red;
        stroke: red;
        stroke-miterlimit: 10;
        stroke-width: 43px;
      }
    </style>
  </defs>
  <g id="Warstwa_1" data-name="Warstwa 1">
    <line class="cls-1" x1="840.75" y1="1673.15" x2="254.67" y2="232.83"/>
    <line class="cls-1" x1="1278.86" y1="866.7" x2="840.75" y2="1673.15"/>
  </g>
  <g id="Warstwa_3" data-name="Warstwa 3">
    <g id="SVGRepo_iconCarrier" data-name="SVGRepo iconCarrier">
      <path class="cls-2" d="m272.87,31.37c-30.83,12.59-55.89,36.19-70.3,66.23-24.49-9.04-51.08-10.75-76.53-4.93-25.45,5.82-48.66,18.92-66.79,37.7-18.13,18.78-30.41,42.43-35.33,68.07-4.92,25.64-2.28,52.15,7.61,76.31,60.52,149.48,310.1,166.31,310.1,166.31,0,0,167.58-185.72,107.06-335.2-13.44-33.19-39.51-59.68-72.48-73.65-32.97-13.97-70.14-14.27-103.33-.83Z"/>
    </g>
    <g id="SVGRepo_iconCarrier-2" data-name="SVGRepo iconCarrier">
      <path class="cls-2" d="m1508.47,629.37c-29.31-15.81-63.46-20.16-95.8-12.21-8.58-24.65-24.15-46.28-44.82-62.23-20.66-15.96-45.52-25.56-71.54-27.63-26.02-2.07-52.09,3.48-75.01,15.96-22.93,12.49-41.72,31.37-54.1,54.36-76.98,141.71,68.59,345.14,68.59,345.14,0,0,249.89,11.41,326.87-130.3,17.09-31.46,20.99-68.43,10.83-102.77-10.16-34.34-33.55-63.23-65.01-80.32Z"/>
    </g>
  </g>
</svg>